<?xml version="1.0" encoding="utf-8"?>
<!-- Generator: Adobe Illustrator 16.0.3, SVG Export Plug-In . SVG Version: 6.00 Build 0)  -->
<!DOCTYPE svg PUBLIC "-//W3C//DTD SVG 1.1 Tiny//EN" "http://www.w3.org/Graphics/SVG/1.1/DTD/svg11-tiny.dtd">
<svg version="1.1" baseProfile="tiny"
	 id="svg8" inkscape:version="0.92.1 r15371" sodipodi:docname="civilian-staging-transit.svg" xmlns:svg="http://www.w3.org/2000/svg" xmlns:rdf="http://www.w3.org/1999/02/22-rdf-syntax-ns#" xmlns:inkscape="http://www.inkscape.org/namespaces/inkscape" xmlns:sodipodi="http://sodipodi.sourceforge.net/DTD/sodipodi-0.dtd" xmlns:cc="http://creativecommons.org/ns#" xmlns:dc="http://purl.org/dc/elements/1.1/"
	 xmlns="http://www.w3.org/2000/svg" xmlns:xlink="http://www.w3.org/1999/xlink" x="0px" y="0px" width="32px" height="32px"
	 viewBox="0 0 32 32" xml:space="preserve">
<sodipodi:namedview  units="px" inkscape:pageopacity="0.0" inkscape:window-y="-8" inkscape:pageshadow="2" inkscape:window-maximized="1" inkscape:window-height="1017" inkscape:window-width="1920" inkscape:current-layer="layer1" inkscape:document-units="mm" inkscape:window-x="1912" showgrid="false" inkscape:zoom="22.4" inkscape:cy="12.891614" bordercolor="#666666" inkscape:cx="17.260624" borderopacity="1.0" pagecolor="#ffffff" id="base">
	</sodipodi:namedview>
<g id="layer1" transform="translate(0,-288.53331)" inkscape:groupmode="layer" inkscape:label="Livello 1">
	<path id="path4487" fill="#FFFFFF" d="M16.098,290.061c-2.176-0.01-4.397,0.492-6.535,1.527c-2.337,1.133-5.389,4.204-6.516,6.557
		c-1.957,4.088-2.012,8.302-0.158,12.32c0.802,1.737,2.087,3.693,2.293,3.488c0.055-0.041,0.185-1.785,0.287-3.842v-0.002
		c0.145-2.902,0.282-3.891,0.619-4.404l0.436-0.66h9.094h9.096l0.496,0.809c0.723,1.182,1.292,3.323,1.309,4.92
		c0.008,0.766,0.098,1.842,0.201,2.391l0.188,1l1.039-1.59c3.959-6.045,3.207-13.223-1.914-18.285
		C23.229,291.519,19.725,290.078,16.098,290.061z M15.715,293.553c0.169-0.011,0.347,0.089,0.625,0.291
		c0.381,0.282,0.422,0.778,0.361,4.436l-0.07,4.121l-0.67,0.08c-0.466,0.041-0.752-0.081-0.938-0.42v-0.002
		c-0.154-0.282-0.266-2.031-0.266-4.119c0-2.959,0.072-3.693,0.393-4.016C15.388,293.686,15.546,293.564,15.715,293.553z
		 M24.904,293.572c0.162-0.01,0.324,0.081,0.5,0.256c0.555,0.556,0.376,1.343-1.223,5.328l-1.303,3.25l-0.943,0.08
		c-0.877,0.081-0.97,0.01-1.324-0.836v-0.002c-0.854-2.044-2.605-6.914-2.605-7.244c0-0.452,0.848-0.914,1.336-0.725
		c0.205,0.081,0.858,1.527,1.453,3.229c0.594,1.697,1.134,3.031,1.199,2.967c0.066-0.081,0.578-1.427,1.139-3.023
		C23.944,294.542,24.42,293.602,24.904,293.572z M9.273,293.67c1.209-0.1,2.439,0.294,3.291,1.148
		c0.963,0.963,0.903,2.067-0.119,2.184c-0.378,0.041-0.688-0.025-0.688-0.16c0-0.121-0.274-0.53-0.611-0.893
		c-0.731-0.79-2.047-0.889-2.871-0.24c-0.73,0.593-1.101,2.316-0.764,3.566c0.3,1.117,1.045,1.742,2.07,1.742
		c0.995,0,1.559-0.362,1.916-1.221c0.549-1.326,1.766-1.282,1.752,0.08c-0.017,1.617-1.44,2.656-3.641,2.656
		c-1.169,0.001-1.724-0.121-2.375-0.564v0.01c-2.434-1.621-2.451-5.957-0.029-7.588C7.83,293.969,8.548,293.73,9.273,293.67z
		 M7.041,306.293c-0.479,0-0.769,0.627-0.775,1.684c-0.003,0.436,0.139,0.564,0.621,0.564c0.574,0,0.625-0.08,0.625-1.125
		C7.512,306.481,7.432,306.293,7.041,306.293z M9.635,306.293c-0.87,0-0.875,0.002-0.875,1.123s0.005,1.125,0.875,1.125
		s0.875-0.004,0.875-1.125C10.51,306.299,10.505,306.293,9.635,306.293z M11.76,306.293v1.123v1.125h0.998h1v-1.125v-1.123h-1H11.76
		z M14.758,306.293v1.123v1.125h1h0.998v-1.125v-1.123h-0.998H14.758z M18.006,306.293v1.123v1.125h1h1v-1.125v-1.123h-1H18.006z
		 M21.004,306.293v1.123v1.125h1h1v-1.125v-1.123h-1H21.004z M24.492,306.293c-0.412,0-0.488,0.16-0.488,1.123
		c0,1.023,0.053,1.125,0.609,1.125c0.336,0,0.668-0.08,0.74-0.201v-0.008c0.072-0.121,0.018-0.621-0.121-1.125
		C25.052,306.554,24.842,306.293,24.492,306.293z M21.771,313.52c-0.375,0-0.518,0.162-0.518,0.586c0,1.131,0.82,1.209,0.955,0.084
		C22.272,313.657,22.185,313.52,21.771,313.52z M8.994,313.57c-0.168,0.031-0.234,0.203-0.234,0.529
		c0,0.322,0.078,0.679,0.172,0.775c0.323,0.322,0.703-0.004,0.703-0.605c0-0.363-0.166-0.633-0.438-0.686
		C9.118,313.565,9.05,313.56,8.994,313.57z M10.859,314.285l-0.322,0.891c-0.58,1.601-1.964,1.59-2.639-0.025
		c-0.334-0.803-0.444-0.867-1.438-0.855l-1.074,0.012l1.234,1.133c3.309,3.044,8.251,4.246,12.736,3.1v0.002
		c2.354-0.601,4.58-1.757,6.117-3.172l1.152-1.061l-1.541-0.012c-1.537-0.012-1.543-0.004-2,0.928
		c-0.398,0.814-0.57,0.936-1.33,0.936c-0.764,0-0.927-0.121-1.312-0.936l-0.441-0.939H15.43H10.859z"/>
	<path id="path4498" inkscape:connector-curvature="0" d="M0.125,320.263c-0.093-0.161,0.314-0.766,0.904-1.366l1.073-1.093
		l-0.606-0.242c-0.563-0.201-0.479-0.282,1.18-1.093l1.786-0.862l-0.837-1.061c-1.289-1.628-2.031-3.02-2.74-5.128
		c-1.612-4.803-0.795-9.997,2.235-14.221l1.323-1.842l-1.777-0.803c-1.649-0.746-1.733-0.822-1.171-1.04l0.606-0.242l-1.043-1.064
		c-0.954-0.971-1.315-1.669-0.866-1.669c0.098,0,0.667,0.48,1.265,1.061c0.968,0.947,1.113,1.016,1.333,0.625
		c0.136-0.242,0.33-0.439,0.429-0.439c0.1,0,0.496,0.722,0.879,1.6l0.698,1.601l1.859-1.334c5.853-4.199,13.651-4.046,19.215,0.362
		c0.523,0.416,1.031,0.754,1.131,0.754s0.494-0.693,0.875-1.544c0.63-1.407,0.723-1.504,1.026-1.084
		c0.313,0.427,0.405,0.403,1.489-0.609c0.846-0.782,1.229-0.991,1.432-0.786c0.203,0.202-0.016,0.577-0.823,1.399
		c-1.048,1.068-1.078,1.137-0.625,1.471c0.442,0.323,0.365,0.403-1.096,1.141c-1.537,0.774-1.562,0.806-1.169,1.342
		c3.609,4.921,4.68,9.822,3.22,14.738c-0.524,1.766-1.909,4.465-2.827,5.51c-0.414,0.472-0.752,0.959-0.752,1.084
		c0,0.121,0.759,0.602,1.687,1.061c1.571,0.778,1.646,0.852,1.081,1.061l-0.606,0.242l1.044,1.064
		C31.53,319.44,32,320.057,32,320.222c0,0.612-0.734,0.282-1.604-0.737c-0.49-0.572-0.933-0.996-0.982-0.936
		c-0.049,0.04-0.209,0.322-0.357,0.601c-0.235,0.439-0.363,0.282-1.1-1.339l-0.833-1.834l-1.21,1
		c-2.748,2.273-6.104,3.41-10.032,3.406c-2.348-0.004-3.041-0.121-4.748-0.693c-2.129-0.738-3.962-1.754-5.351-2.967l-0.853-0.746
		l-0.715,1.576c-0.868,1.911-0.879,1.923-1.271,1.391c-0.284-0.402-0.403-0.322-1.297,0.581c-1.045,1.068-1.253,1.169-1.522,0.733
		V320.263z M19.356,318.541c2.353-0.601,4.581-1.758,6.118-3.172l1.152-1.061l-1.541-0.012c-1.536-0.012-1.543-0.004-1.999,0.928
		c-0.399,0.814-0.57,0.936-1.331,0.936c-0.763,0-0.928-0.121-1.313-0.936l-0.44-0.939h-4.571H10.86l-0.322,0.891
		c-0.58,1.602-1.965,1.589-2.64-0.025c-0.334-0.803-0.443-0.867-1.437-0.855l-1.075,0.012l1.233,1.133
		c3.309,3.044,8.251,4.246,12.736,3.1V318.541z M9.635,314.27c0-0.363-0.166-0.633-0.437-0.686c-0.319-0.08-0.438,0.081-0.438,0.517
		c0,0.322,0.077,0.677,0.172,0.774C9.255,315.197,9.635,314.871,9.635,314.27L9.635,314.27z M22.209,314.19
		c0.062-0.532-0.025-0.67-0.438-0.67c-0.375,0-0.517,0.162-0.517,0.585c0,1.133,0.82,1.21,0.954,0.081V314.19z M5.468,310.109
		c0.145-2.902,0.284-3.891,0.621-4.404l0.434-0.661h9.095h9.095l0.496,0.811c0.723,1.181,1.291,3.321,1.308,4.918
		c0.008,0.767,0.099,1.843,0.202,2.391l0.187,1l1.04-1.589c3.959-6.045,3.207-13.222-1.914-18.285
		c-4.483-4.433-10.767-5.463-16.468-2.701c-2.337,1.133-5.39,4.204-6.517,6.557c-1.957,4.088-2.011,8.301-0.158,12.319
		c0.802,1.738,2.087,3.693,2.293,3.487C5.237,313.912,5.366,312.166,5.468,310.109L5.468,310.109z M7.235,301.979
		c-2.434-1.621-2.451-5.957-0.029-7.589c1.666-1.125,3.996-0.939,5.359,0.428c0.963,0.963,0.903,2.068-0.119,2.185
		c-0.378,0.041-0.687-0.027-0.687-0.162c0-0.121-0.276-0.528-0.613-0.891c-0.731-0.79-2.046-0.891-2.871-0.242
		c-0.73,0.593-1.1,2.318-0.763,3.568c0.3,1.117,1.044,1.742,2.069,1.742c0.995,0,1.559-0.363,1.916-1.222
		c0.549-1.326,1.766-1.282,1.752,0.081c-0.016,1.617-1.44,2.657-3.641,2.657c-1.169,0.001-1.723-0.121-2.374-0.564V301.979z
		 M15.024,302.059c-0.154-0.282-0.267-2.032-0.267-4.12c0-2.959,0.072-3.692,0.393-4.015c0.475-0.476,0.635-0.484,1.19-0.081
		c0.38,0.282,0.421,0.778,0.36,4.436l-0.069,4.122l-0.67,0.081c-0.466,0.041-0.751-0.081-0.937-0.419L15.024,302.059z
		 M20.611,301.648c-0.854-2.044-2.605-6.912-2.605-7.243c0-0.452,0.85-0.916,1.337-0.726c0.206,0.081,0.857,1.528,1.452,3.229
		c0.594,1.697,1.133,3.032,1.199,2.967c0.064-0.081,0.578-1.427,1.139-3.024c1.082-3.08,1.568-3.725,2.271-3.023
		c0.557,0.557,0.375,1.343-1.223,5.328l-1.303,3.25l-0.943,0.081c-0.877,0.081-0.971,0.011-1.324-0.834V301.648z M7.511,307.417
		c0-0.936-0.08-1.125-0.471-1.125c-0.479,0-0.769,0.629-0.775,1.685c-0.003,0.436,0.139,0.564,0.621,0.564
		C7.46,308.541,7.511,308.461,7.511,307.417L7.511,307.417z M10.509,307.417c0-1.117-0.004-1.125-0.875-1.125
		s-0.875,0.004-0.875,1.125c0,1.12,0.004,1.124,0.875,1.124S10.509,308.537,10.509,307.417z M13.758,307.417v-1.125h-1h-1v1.125
		v1.124h1h1V307.417z M16.757,307.417v-1.125h-1h-1v1.125v1.124h1h1V307.417z M20.006,307.417v-1.125h-1h-1v1.125v1.124h1h1V307.417
		z M23.004,307.417v-1.125h-1h-0.999v1.125v1.124h0.999h1V307.417z M25.354,308.332c0.072-0.121,0.018-0.621-0.121-1.125
		c-0.182-0.653-0.392-0.915-0.74-0.915c-0.412,0-0.488,0.161-0.488,1.125c0,1.024,0.053,1.124,0.609,1.124
		c0.336,0,0.669-0.08,0.74-0.201V308.332z"/>
</g>
</svg>
