<?xml version="1.0" encoding="utf-8"?>
<!-- Generator: Adobe Illustrator 16.0.3, SVG Export Plug-In . SVG Version: 6.00 Build 0)  -->
<!DOCTYPE svg PUBLIC "-//W3C//DTD SVG 1.1 Tiny//EN" "http://www.w3.org/Graphics/SVG/1.1/DTD/svg11-tiny.dtd">
<svg version="1.1" baseProfile="tiny"
	 id="svg8" inkscape:version="0.92.1 r15371" sodipodi:docname="public-information.svg" xmlns:svg="http://www.w3.org/2000/svg" xmlns:rdf="http://www.w3.org/1999/02/22-rdf-syntax-ns#" xmlns:inkscape="http://www.inkscape.org/namespaces/inkscape" xmlns:sodipodi="http://sodipodi.sourceforge.net/DTD/sodipodi-0.dtd" xmlns:cc="http://creativecommons.org/ns#" xmlns:dc="http://purl.org/dc/elements/1.1/"
	 xmlns="http://www.w3.org/2000/svg" xmlns:xlink="http://www.w3.org/1999/xlink" x="0px" y="0px" width="32px" height="32px"
	 viewBox="0 0 32 32" xml:space="preserve">
<sodipodi:namedview  units="px" inkscape:pageopacity="0.0" inkscape:window-y="-8" inkscape:pageshadow="2" inkscape:window-maximized="1" inkscape:window-height="1017" inkscape:window-width="1920" inkscape:current-layer="layer1" inkscape:document-units="mm" inkscape:window-x="1912" showgrid="false" inkscape:zoom="15.839192" inkscape:cy="11.518153" bordercolor="#666666" inkscape:cx="3.9738105" borderopacity="1.0" pagecolor="#ffffff" id="base">
	</sodipodi:namedview>
<g id="layer1" transform="translate(0,-288.53331)" inkscape:groupmode="layer" inkscape:label="Livello 1">
	<path id="path4483" fill="#FFFFFF" d="M16.002,289.809c-1.358,0-2.716,0.124-3.672,0.373c-5.064,1.319-9.367,5.62-10.686,10.684
		c-0.498,1.912-0.498,5.436,0,7.348c1.292,4.959,5.422,9.158,10.418,10.596c1.908,0.549,5.611,0.599,7.498,0.1
		c9.346-2.473,13.931-12.804,9.467-21.334c-1.804-3.447-5.536-6.399-9.352-7.393C18.72,289.933,17.36,289.809,16.002,289.809z
		 M11.934,291.065h3.941h3.941v2.416v2.414h-3.941h-3.941v-2.414V291.065z M12.189,298.692h3.686h3.686v9.916v9.914h-3.686h-3.686
		v-9.914V298.692z"/>
	<path id="path4513" inkscape:connector-curvature="0" d="M11.935,320.156c-5.438-1.422-10.184-6.209-11.565-11.667
		c-0.492-1.944-0.492-5.956,0-7.901c1.404-5.548,6.125-10.268,11.682-11.68c1.945-0.495,5.957-0.495,7.902,0
		c5.604,1.424,10.225,6.069,11.668,11.728c0.498,1.954,0.507,5.57,0.019,7.64c-1.347,5.713-5.974,10.396-11.733,11.878
		C17.962,320.654,13.843,320.655,11.935,320.156L11.935,320.156z M19.562,318.908c9.347-2.473,13.931-12.805,9.467-21.334
		c-1.804-3.447-5.538-6.398-9.353-7.392c-1.913-0.498-5.434-0.498-7.347,0c-5.064,1.319-9.365,5.62-10.684,10.684
		c-0.498,1.913-0.498,5.434,0,7.346c1.292,4.958,5.42,9.159,10.416,10.597C13.97,319.359,17.676,319.407,19.562,318.908
		L19.562,318.908z M12.189,308.607v-9.915h3.686h3.687v9.915v9.915h-3.687h-3.686V308.607z M11.935,293.48v-2.416h3.94h3.941v2.416
		v2.415h-3.941h-3.94V293.48z"/>
</g>
</svg>
